<svg width="250" height="250" viewBox="0 0 250 250" fill="none" xmlns="http://www.w3.org/2000/svg">
<rect width="250" height="250" transform="matrix(1 0 0 -1 0 250)" fill="#DDE793"/>
<path d="M185.8 49H64.2C60.1687 49 56.3025 50.6014 53.452 53.452C50.6014 56.3025 49 60.1687 49 64.2V155.4C49 159.431 50.6014 163.297 53.452 166.148C56.3025 168.999 60.1687 170.6 64.2 170.6H109.8V185.8H87V201H163V185.8H140.2V170.6H185.8C189.831 170.6 193.697 168.999 196.548 166.148C199.399 163.297 201 159.431 201 155.4V64.2C201 60.1687 199.399 56.3025 196.548 53.452C193.697 50.6014 189.831 49 185.8 49ZM185.8 155.4H64.2V64.2H185.8V155.4ZM161.1 132.6C161.1 136.127 159.699 139.51 157.205 142.005C154.71 144.499 151.327 145.9 147.8 145.9C144.273 145.9 140.89 144.499 138.395 142.005C135.901 139.51 134.5 136.127 134.5 132.6L109.8 120.136C107.877 121.617 105.577 122.529 103.161 122.77C100.746 123.011 98.3114 122.57 96.1335 121.498C93.9556 120.426 92.1215 118.766 90.8388 116.705C89.5562 114.644 88.8764 112.265 88.8764 109.838C88.8764 107.411 89.5562 105.032 90.8388 102.971C92.1215 100.91 93.9556 99.2496 96.1335 98.1777C98.3114 97.1058 100.746 96.6653 103.161 96.9061C105.577 97.1469 107.877 98.0593 109.8 99.54L134.5 87C134.457 83.9505 135.452 80.9771 137.322 78.5673C139.191 76.1575 141.824 74.4545 144.788 73.7374C147.752 73.0204 150.872 73.3319 153.636 74.6209C156.4 75.9099 158.644 78.0998 160 80.8316C161.356 83.5634 161.743 86.6749 161.099 89.6557C160.454 92.6366 158.816 95.31 156.452 97.2374C154.089 99.1648 151.14 100.232 148.091 100.264C145.041 100.295 142.071 99.2898 139.668 97.412L115.196 109.8L139.668 122.036C141.63 120.483 143.992 119.518 146.48 119.253C148.968 118.989 151.48 119.436 153.724 120.542C155.968 121.648 157.853 123.368 159.158 125.503C160.464 127.637 161.137 130.098 161.1 132.6V132.6Z" fill="black"/>
</svg>
