<svg width="250" height="250" viewBox="0 0 250 250" fill="none" xmlns="http://www.w3.org/2000/svg">
<rect width="250" height="250" fill="#F88371"/>
<path d="M69.8968 61.4186V43H88.4742V61.4186H69.8968ZM162.526 43H180.845V61.4186H162.526V43ZM199.423 98V61.4186H218V134.837H199.423V153H180.845V171.419H199.423V189.837H218V208H180.845V189.837H162.526V171.419H88.4742V189.837H69.8968V208H33V189.837H51.5774V171.419H69.8968V153H51.5774V134.837H33V61.4186H51.5774V98H69.8968V79.8372H88.4742V61.4186H107.052V79.8372H143.948V61.4186H162.526V79.8372H180.845V98H199.423ZM107.052 116.419V98H88.4742V116.419H107.052ZM162.526 116.419V98H143.948V116.419H162.526Z" fill="black"/>
</svg>
