<svg width="100" height="100" viewBox="0 0 100 100" fill="none" xmlns="http://www.w3.org/2000/svg">
<path d="M90 0H10C7.34784 0 4.8043 1.05357 2.92893 2.92893C1.05357 4.8043 0 7.34784 0 10V70C0 72.6522 1.05357 75.1957 2.92893 77.0711C4.8043 78.9464 7.34784 80 10 80H40V90H25V100H75V90H60V80H90C92.6522 80 95.1957 78.9464 97.0711 77.0711C98.9464 75.1957 100 72.6522 100 70V10C100 7.34784 98.9464 4.8043 97.0711 2.92893C95.1957 1.05357 92.6522 0 90 0ZM90 70H10V10H90V70ZM73.75 55C73.75 57.3206 72.8281 59.5462 71.1872 61.1872C69.5462 62.8281 67.3206 63.75 65 63.75C62.6794 63.75 60.4538 62.8281 58.8128 61.1872C57.1719 59.5462 56.25 57.3206 56.25 55L40 46.8C38.7346 47.7742 37.2216 48.3744 35.6325 48.5328C34.0434 48.6912 32.4417 48.4014 31.0089 47.6962C29.5761 46.991 28.3694 45.8986 27.5256 44.5428C26.6817 43.187 26.2345 41.622 26.2345 40.025C26.2345 38.428 26.6817 36.863 27.5256 35.5072C28.3694 34.1514 29.5761 33.059 31.0089 32.3538C32.4417 31.6486 34.0434 31.3588 35.6325 31.5172C37.2216 31.6756 38.7346 32.2758 40 33.25L56.25 25C56.222 22.9938 56.8766 21.0375 58.1064 19.4522C59.3362 17.8668 61.0682 16.7464 63.0184 16.2746C64.9686 15.8029 67.0212 16.0078 68.8396 16.8558C70.658 17.7038 72.1343 19.1446 73.0264 20.9418C73.9184 22.7391 74.1733 24.7861 73.7492 26.7472C73.3251 28.7083 72.2471 30.4671 70.6922 31.7351C69.1372 33.0032 67.1975 33.7052 65.1912 33.726C63.1849 33.7469 61.231 33.0854 59.65 31.85L43.55 40L59.65 48.05C60.9405 47.0281 62.4944 46.3933 64.1313 46.2193C65.7682 46.0453 67.4209 46.3392 68.8974 47.067C70.3739 47.7948 71.6136 48.9265 72.4726 50.3307C73.3315 51.735 73.7745 53.3541 73.75 55Z" fill="white"/>
</svg>
