<svg width="667" height="593" viewBox="0 0 667 593" fill="none" xmlns="http://www.w3.org/2000/svg">
<path fill-rule="evenodd" clip-rule="evenodd" d="M352.897 0.00791602C417.096 0.556864 482.809 19.213 530.008 62.7334C574.651 103.897 576.61 170.073 598.688 226.642C622.642 288.017 677.565 343.198 664.685 407.81C651.516 473.875 591.261 520.486 533.278 554.776C479.096 586.819 415.839 593.06 352.897 592.197C290.778 591.346 229.087 582.272 176.075 549.88C119.775 515.479 75.7541 465.379 47.6552 405.684C16.4443 339.376 -16.1544 263.603 8.90819 194.736C33.7938 126.355 110.247 95.5334 173.573 59.6856C229.772 27.8724 288.322 -0.544258 352.897 0.00791602Z" fill="#2C60C7"/>
<path d="M243.579 211.123L234.048 208.281C233.048 207.992 232.486 206.917 232.767 205.889L254.093 130.391C254.375 129.363 255.421 128.785 256.421 129.074L265.952 131.916C266.952 132.205 267.514 133.281 267.233 134.309L245.907 209.807C245.61 210.834 244.579 211.428 243.579 211.123ZM225.768 193.108L232.564 185.658C233.283 184.871 233.236 183.618 232.439 182.896L218.284 170.099L232.439 157.302C233.236 156.579 233.298 155.327 232.564 154.54L225.768 147.09C225.064 146.319 223.877 146.271 223.111 147.009L200.598 168.686C199.801 169.441 199.801 170.741 200.598 171.496L223.111 193.188C223.877 193.927 225.064 193.895 225.768 193.108ZM276.889 193.204L299.402 171.512C300.199 170.757 300.199 169.457 299.402 168.702L276.889 146.993C276.139 146.271 274.951 146.303 274.232 147.074L267.436 154.524C266.717 155.311 266.764 156.563 267.561 157.286L281.716 170.099L267.561 182.896C266.764 183.618 266.702 184.871 267.436 185.658L274.232 193.108C274.936 193.895 276.123 193.927 276.889 193.204Z" fill="white"/>
<path d="M212.875 421.375C214.125 429.5 215.375 431.375 215.375 439.5C215.375 444.5 206 448.875 206 448.875V455.125C206 455.125 215.375 459.5 215.375 464.5C215.375 472.625 214.125 474.5 212.875 482.625C211 495.75 217.875 502 224.125 502H237.25V489.5C237.25 489.5 226 490.75 226 483.25C226 477.625 227.25 477.625 228.5 465.125C229.125 459.5 225.375 455.125 221.625 452C225.375 448.875 229.125 445.125 228.5 439.5C226.625 427 226 427 226 421.375C226 413.875 237.25 414.5 237.25 414.5V402H224.125C217.25 402 211 408.25 212.875 421.375Z" fill="white"/>
<path d="M286.625 421.375C285.375 429.5 284.125 431.375 284.125 439.5C284.125 444.5 293.5 448.875 293.5 448.875V455.125C293.5 455.125 284.125 459.5 284.125 464.5C284.125 472.625 285.375 474.5 286.625 482.625C288.5 495.75 281.625 502 275.375 502H262.25V489.5C262.25 489.5 273.5 490.75 273.5 483.25C273.5 477.625 272.25 477.625 271 465.125C270.375 459.5 274.125 455.125 277.875 452C274.125 448.875 270.375 445.125 271 439.5C272.25 427 273.5 427 273.5 421.375C273.5 413.875 262.25 414.5 262.25 414.5V402H275.375C282.25 402 288.5 408.25 286.625 421.375Z" fill="white"/>
<path d="M432.578 449.559L438.926 455.906L431.016 463.816C430.43 464.402 430.43 464.988 431.016 465.574L432.676 467.234C433.262 467.82 433.848 467.82 434.434 467.234L442.344 459.324L454.551 471.531L446.641 479.441C446.055 480.027 446.055 480.581 446.641 481.102L448.301 482.859C448.887 483.445 449.473 483.445 450.059 482.859L457.969 474.949L464.121 481.102C464.707 481.688 465 482.404 465 483.25C465 484.096 464.707 484.845 464.121 485.496L448.496 501.121C447.845 501.707 447.096 502 446.25 502C445.404 502 444.688 501.707 444.102 501.121L412.559 469.578L394.199 487.938C393.158 488.979 391.888 489.5 390.391 489.5C388.893 489.5 387.624 488.979 386.582 487.938L379.16 480.418C378.118 479.376 377.598 478.123 377.598 476.658C377.598 475.193 378.118 473.94 379.16 472.898L397.52 454.539L365.879 422.898C365.293 422.312 365 421.596 365 420.75C365 419.904 365.293 419.188 365.879 418.602L381.504 402.879C382.155 402.293 382.904 402 383.75 402C384.596 402 385.312 402.293 385.898 402.879L392.051 409.031L384.141 416.941C383.555 417.527 383.555 418.113 384.141 418.699L385.801 420.359C386.387 420.945 386.973 420.945 387.559 420.359L395.469 412.449L407.676 424.656L399.766 432.566C399.18 433.152 399.18 433.738 399.766 434.324L401.426 435.984C402.012 436.57 402.598 436.57 403.184 435.984L411.094 428.074L417.441 434.52L448.398 403.562C449.44 402.521 450.693 402 452.158 402C453.623 402 454.876 402.521 455.918 403.562L463.438 411.082C464.479 412.124 465 413.377 465 414.842C465 416.307 464.479 417.56 463.438 418.602L432.578 449.559ZM371.445 480.906C371.576 481.427 371.803 481.85 372.129 482.176L384.824 494.871C385.15 495.197 385.573 495.424 386.094 495.555C385.768 496.206 385.508 496.596 385.312 496.727L368.125 502C366.562 502 365.651 501.87 365.391 501.609C365.13 501.349 365 500.438 365 498.875L370.273 481.688C370.404 481.557 370.794 481.297 371.445 480.906Z" fill="white"/>
<path d="M460 120H370C368.674 120 367.402 120.527 366.464 121.464C365.527 122.402 365 123.674 365 125V215C365 216.326 365.527 217.598 366.464 218.536C367.402 219.473 368.674 220 370 220H460C461.326 220 462.598 219.473 463.536 218.536C464.473 217.598 465 216.326 465 215V125C465 123.674 464.473 122.402 463.536 121.464C462.598 120.527 461.326 120 460 120ZM424.928 210H375V160H424.928V210ZM455 210H434.928V160H455V210ZM455 150H375V130H455V150Z" fill="white"/>
<path d="M302.944 271.956V262H312.986V271.956H302.944ZM353.014 262H362.916V271.956H353.014V262ZM372.958 291.73V271.956H383V311.642H372.958V321.459H362.916V331.415H372.958V341.371H383V351.189H362.916V341.371H353.014V331.415H312.986V341.371H302.944V351.189H283V341.371H293.042V331.415H302.944V321.459H293.042V311.642H283V271.956H293.042V291.73H302.944V281.912H312.986V271.956H323.028V281.912H342.972V271.956H353.014V281.912H362.916V291.73H372.958ZM323.028 301.686V291.73H312.986V301.686H323.028ZM353.014 301.686V291.73H342.972V301.686H353.014Z" fill="white"/>
<path d="M543 251H453C451.674 251 450.402 251.527 449.464 252.464C448.527 253.402 448 254.674 448 256V346C448 347.326 448.527 348.598 449.464 349.536C450.402 350.473 451.674 351 453 351H543C544.326 351 545.598 350.473 546.536 349.536C547.473 348.598 548 347.326 548 346V256C548 254.674 547.473 253.402 546.536 252.464C545.598 251.527 544.326 251 543 251ZM508 341H458V306H508V341ZM508 296H458V261H508V296ZM538 341H518V261H538V341Z" fill="white"/>
<path d="M208 251H128C125.348 251 122.804 252.054 120.929 253.929C119.054 255.804 118 258.348 118 261V321C118 323.652 119.054 326.196 120.929 328.071C122.804 329.946 125.348 331 128 331H158V341H143V351H193V341H178V331H208C210.652 331 213.196 329.946 215.071 328.071C216.946 326.196 218 323.652 218 321V261C218 258.348 216.946 255.804 215.071 253.929C213.196 252.054 210.652 251 208 251ZM208 321H128V261H208V321ZM191.75 306C191.75 308.321 190.828 310.546 189.187 312.187C187.546 313.828 185.321 314.75 183 314.75C180.679 314.75 178.454 313.828 176.813 312.187C175.172 310.546 174.25 308.321 174.25 306L158 297.8C156.735 298.774 155.222 299.374 153.633 299.533C152.043 299.691 150.442 299.401 149.009 298.696C147.576 297.991 146.369 296.899 145.526 295.543C144.682 294.187 144.234 292.622 144.234 291.025C144.234 289.428 144.682 287.863 145.526 286.507C146.369 285.151 147.576 284.059 149.009 283.354C150.442 282.649 152.043 282.359 153.633 282.517C155.222 282.676 156.735 283.276 158 284.25L174.25 276C174.222 273.994 174.877 272.038 176.106 270.452C177.336 268.867 179.068 267.746 181.018 267.275C182.969 266.803 185.021 267.008 186.84 267.856C188.658 268.704 190.134 270.145 191.026 271.942C191.918 273.739 192.173 275.786 191.749 277.747C191.325 279.708 190.247 281.467 188.692 282.735C187.137 284.003 185.198 284.705 183.191 284.726C181.185 284.747 179.231 284.085 177.65 282.85L161.55 291L177.65 299.05C178.941 298.028 180.494 297.393 182.131 297.219C183.768 297.045 185.421 297.339 186.897 298.067C188.374 298.795 189.614 299.926 190.473 301.331C191.332 302.735 191.774 304.354 191.75 306Z" fill="white"/>
</svg>
