<svg width="153" height="152" viewBox="0 0 153 152" fill="none" xmlns="http://www.w3.org/2000/svg">
<path d="M137.675 0H16.075C12.0437 0 8.17753 1.60142 5.32698 4.45198C2.47642 7.30253 0.875 11.1687 0.875 15.2V106.4C0.875 110.431 2.47642 114.297 5.32698 117.148C8.17753 119.999 12.0437 121.6 16.075 121.6H61.675V136.8H38.875V152H114.875V136.8H92.075V121.6H137.675C141.706 121.6 145.572 119.999 148.423 117.148C151.274 114.297 152.875 110.431 152.875 106.4V15.2C152.875 11.1687 151.274 7.30253 148.423 4.45198C145.572 1.60142 141.706 0 137.675 0ZM137.675 106.4H16.075V15.2H137.675V106.4ZM112.975 83.6C112.975 87.1274 111.574 90.5103 109.08 93.0045C106.585 95.4988 103.202 96.9 99.675 96.9C96.1476 96.9 92.7647 95.4988 90.2705 93.0045C87.7762 90.5103 86.375 87.1274 86.375 83.6L61.675 71.136C59.7515 72.6167 57.4518 73.5291 55.0364 73.7699C52.621 74.0107 50.1864 73.5702 48.0085 72.4983C45.8306 71.4264 43.9965 69.7659 42.7138 67.7051C41.4312 65.6443 40.7514 63.2654 40.7514 60.838C40.7514 58.4106 41.4312 56.0317 42.7138 53.9709C43.9965 51.9101 45.8306 50.2496 48.0085 49.1777C50.1864 48.1058 52.621 47.6653 55.0364 47.9061C57.4518 48.1469 59.7515 49.0593 61.675 50.54L86.375 38C86.3325 34.9505 87.3274 31.9771 89.1967 29.5673C91.066 27.1575 93.6986 25.4545 96.6629 24.7374C99.6272 24.0204 102.747 24.3319 105.511 25.6209C108.275 26.9099 110.519 29.0998 111.875 31.8316C113.231 34.5634 113.618 37.6749 112.974 40.6557C112.329 43.6366 110.691 46.31 108.327 48.2374C105.964 50.1648 103.015 51.2319 99.9656 51.2636C96.916 51.2953 93.9461 50.2898 91.543 48.412L67.071 60.8L91.543 73.036C93.5046 71.4827 95.8665 70.5178 98.3546 70.2533C100.843 69.9888 103.355 70.4356 105.599 71.5418C107.843 72.6481 109.728 74.3683 111.033 76.5027C112.339 78.6371 113.012 81.0982 112.975 83.6Z" fill="#718B58"/>
</svg>
