<svg width="186" height="165" viewBox="0 0 186 165" fill="none" xmlns="http://www.w3.org/2000/svg">
<path d="M37.7718 18.4186V0H56.3492V18.4186H37.7718ZM130.401 0H148.72V18.4186H130.401V0ZM167.298 55V18.4186H185.875V91.8372H167.298V110H148.72V128.419H167.298V146.837H185.875V165H148.72V146.837H130.401V128.419H56.3492V146.837H37.7718V165H0.875V146.837H19.4524V128.419H37.7718V110H19.4524V91.8372H0.875V18.4186H19.4524V55H37.7718V36.8372H56.3492V18.4186H74.9266V36.8372H111.823V18.4186H130.401V36.8372H148.72V55H167.298ZM74.9266 73.4186V55H56.3492V73.4186H74.9266ZM130.401 73.4186V55H111.823V73.4186H130.401Z" fill="#A33824"/>
</svg>
