<svg width="162" height="185" viewBox="0 0 162 185" fill="none" xmlns="http://www.w3.org/2000/svg">
<path d="M12.7188 35.8438C15.0313 50.875 17.3438 54.3438 17.3438 69.375C17.3438 78.625 0 86.7188 0 86.7188V98.2813C0 98.2813 17.3438 106.375 17.3438 115.625C17.3438 130.656 15.0313 134.125 12.7188 149.156C9.25 173.438 21.9688 185 33.5313 185H57.8125V161.875C57.8125 161.875 37 164.188 37 150.313C37 139.906 39.3125 139.906 41.625 116.781C42.7813 106.375 35.8438 98.2813 28.9063 92.5C35.8438 86.7188 42.7813 79.7813 41.625 69.375C38.1563 46.25 37 46.25 37 35.8438C37 21.9687 57.8125 23.125 57.8125 23.125V0H33.5313C20.8125 0 9.25 11.5625 12.7188 35.8438Z" fill="#5F8093"/>
<path d="M149.156 35.8438C146.844 50.875 144.531 54.3438 144.531 69.375C144.531 78.625 161.875 86.7188 161.875 86.7188V98.2813C161.875 98.2813 144.531 106.375 144.531 115.625C144.531 130.656 146.844 134.125 149.156 149.156C152.625 173.438 139.906 185 128.344 185H104.063V161.875C104.063 161.875 124.875 164.188 124.875 150.313C124.875 139.906 122.563 139.906 120.25 116.781C119.094 106.375 126.031 98.2813 132.969 92.5C126.031 86.7188 119.094 79.7813 120.25 69.375C122.563 46.25 124.875 46.25 124.875 35.8438C124.875 21.9687 104.063 23.125 104.063 23.125V0H128.344C141.063 0 152.625 11.5625 149.156 35.8438Z" fill="#5F8093"/>
</svg>
