<svg width="186" height="185" viewBox="0 0 186 185" fill="none" xmlns="http://www.w3.org/2000/svg">
<path d="M125.895 87.9834L137.638 99.7266L123.004 114.36C121.92 115.444 121.92 116.528 123.004 117.612L126.075 120.684C127.159 121.768 128.243 121.768 129.327 120.684L143.961 106.05L166.544 128.633L151.91 143.267C150.826 144.351 150.826 145.374 151.91 146.338L154.981 149.59C156.065 150.674 157.149 150.674 158.233 149.59L172.867 134.956L184.249 146.338C185.333 147.422 185.875 148.747 185.875 150.312C185.875 151.878 185.333 153.263 184.249 154.468L155.343 183.374C154.138 184.458 152.753 185 151.188 185C149.622 185 148.297 184.458 147.213 183.374L88.8584 125.02L54.8936 158.984C52.9665 160.911 50.6178 161.875 47.8477 161.875C45.0775 161.875 42.7288 160.911 40.8018 158.984L27.0713 145.073C25.1442 143.146 24.1807 140.828 24.1807 138.118C24.1807 135.408 25.1442 133.089 27.0713 131.162L61.0361 97.1973L2.50098 38.6621C1.41699 37.5781 0.875 36.2533 0.875 34.6875C0.875 33.1217 1.41699 31.7969 2.50098 30.7129L31.4072 1.62598C32.6117 0.541992 33.9967 0 35.5625 0C37.1283 0 38.4531 0.541992 39.5371 1.62598L50.9189 13.0078L36.2852 27.6416C35.2012 28.7256 35.2012 29.8096 36.2852 30.8936L39.3564 33.9648C40.4404 35.0488 41.5244 35.0488 42.6084 33.9648L57.2422 19.3311L79.8252 41.9141L65.1914 56.5479C64.1074 57.6318 64.1074 58.7158 65.1914 59.7998L68.2627 62.8711C69.3467 63.9551 70.4307 63.9551 71.5146 62.8711L86.1484 48.2373L97.8916 60.1611L155.162 2.89062C157.089 0.963542 159.408 0 162.118 0C164.828 0 167.146 0.963542 169.073 2.89062L182.984 16.8018C184.911 18.7288 185.875 21.0474 185.875 23.7573C185.875 26.4673 184.911 28.7858 182.984 30.7129L125.895 87.9834ZM12.7988 145.977C13.0397 146.94 13.4613 147.723 14.0635 148.325L37.5498 171.812C38.152 172.414 38.9349 172.835 39.8984 173.076C39.2962 174.281 38.8145 175.003 38.4531 175.244L6.65625 185C3.76562 185 2.07943 184.759 1.59766 184.277C1.11589 183.796 0.875 182.109 0.875 179.219L10.6309 147.422C10.8717 147.181 11.5944 146.699 12.7988 145.977Z" fill="#998D50"/>
</svg>
