<svg width="186" height="185" viewBox="0 0 186 185" fill="none" xmlns="http://www.w3.org/2000/svg">
<path d="M176.625 0H10.125C7.67175 0 5.31897 0.97455 3.58426 2.70926C1.84955 4.44397 0.875 6.79675 0.875 9.25V175.75C0.875 178.203 1.84955 180.556 3.58426 182.291C5.31897 184.025 7.67175 185 10.125 185H176.625C179.078 185 181.431 184.025 183.166 182.291C184.9 180.556 185.875 178.203 185.875 175.75V9.25C185.875 6.79675 184.9 4.44397 183.166 2.70926C181.431 0.97455 179.078 0 176.625 0ZM111.741 166.5H19.375V74H111.741V166.5ZM167.375 166.5H130.241V74H167.375V166.5ZM167.375 55.5H19.375V18.5H167.375V55.5Z" fill="#998D50"/>
</svg>
