<svg width="234" height="189" viewBox="0 0 234 189" fill="none" xmlns="http://www.w3.org/2000/svg">
<path d="M101.974 188.816L79.6726 182.282C77.3328 181.617 76.0166 179.144 76.6747 176.781L126.579 3.19804C127.237 0.835364 129.686 -0.493642 132.026 0.170861L154.327 6.70514C156.667 7.36964 157.983 9.84307 157.325 12.2057L107.421 185.789C106.727 188.151 104.314 189.517 101.974 188.816V188.816ZM60.296 147.395L76.1994 130.266C77.8812 128.457 77.7715 125.577 75.907 123.916L42.7839 94.4934L75.907 65.0707C77.7715 63.4094 77.9177 60.5299 76.1994 58.721L60.296 41.5916C58.6508 39.8195 55.8723 39.7088 54.0808 41.407L1.39841 91.2447C-0.466136 92.9798 -0.466136 95.9701 1.39841 97.7052L54.0808 147.58C55.8723 149.278 58.6508 149.204 60.296 147.395V147.395ZM179.919 147.617L232.602 97.7421C234.466 96.007 234.466 93.0167 232.602 91.2816L179.919 41.3701C178.164 39.7088 175.386 39.7826 173.704 41.5546L157.801 58.6841C156.119 60.493 156.228 63.3725 158.093 65.0337L191.216 94.4934L158.093 123.916C156.228 125.577 156.082 128.457 157.801 130.266L173.704 147.395C175.349 149.204 178.128 149.278 179.919 147.617V147.617Z" fill="#5F8093"/>
</svg>
