<svg width="100" height="100" viewBox="0 0 100 100" fill="none" xmlns="http://www.w3.org/2000/svg">
<path d="M95 0H5C3.67392 0 2.40215 0.526784 1.46447 1.46447C0.526784 2.40215 0 3.67392 0 5V95C0 96.3261 0.526784 97.5979 1.46447 98.5355C2.40215 99.4732 3.67392 100 5 100H95C96.3261 100 97.5979 99.4732 98.5355 98.5355C99.4732 97.5979 100 96.3261 100 95V5C100 3.67392 99.4732 2.40215 98.5355 1.46447C97.5979 0.526784 96.3261 0 95 0ZM60 90H10V55H60V90ZM60 45H10V10H60V45ZM90 90H70V10H90V90Z" fill="white"/>
</svg>
