<svg width="70" height="70" viewBox="0 0 70 70" fill="none" xmlns="http://www.w3.org/2000/svg">
<circle cx="35" cy="35" r="35" fill="#244FA3"/>
<path d="M27.1491 13.5578C26.485 12.9807 25.4974 12.9807 24.8331 13.5578L21.8407 16.1575C21.4794 16.4714 21.0061 16.6251 20.5293 16.5836L16.5804 16.2393C15.7037 16.1629 14.9047 16.7434 14.7066 17.6006L13.8136 21.4627C13.7059 21.929 13.4134 22.3316 13.0032 22.5782L9.60602 24.6209C8.85205 25.0743 8.54685 26.0136 8.89042 26.8236L10.438 30.4729C10.6249 30.9136 10.6249 31.4111 10.438 31.8518L8.89042 35.5011C8.54685 36.3111 8.85205 37.2504 9.60602 37.7038L13.0032 39.7465C13.4134 39.9931 13.7059 40.3957 13.8136 40.8619L14.7066 44.7241C14.9047 45.5813 15.7037 46.1618 16.5804 46.0854L20.5293 45.7411C21.0061 45.6996 21.4794 45.8533 21.8407 46.1672L24.8331 48.7669C25.4974 49.3439 26.485 49.3439 27.1491 48.7669L29.3007 46.8978C29.4753 46.7461 29.6924 46.6519 29.9225 46.6281L32.9023 46.3193C33.4616 46.2388 34.0324 46.138 34.6149 46.0168L37.6279 45.2405C38.0937 45.0988 38.4064 44.6656 38.4064 44.1787V35.7809C38.4064 35.1595 38.9101 34.6559 39.5314 34.6559H45.4957C46.117 34.6559 46.6207 35.1595 46.6207 35.7809V58.4442C46.6207 59.0655 47.1243 59.5692 47.7457 59.5692H51.9102C52.5315 59.5692 53.0352 59.0655 53.0352 58.4442V35.7809C53.0352 35.1595 53.5389 34.6559 54.1602 34.6559H60.125C60.7463 34.6559 61.25 34.1522 61.25 33.5309V30.4423C61.25 29.821 60.7463 29.3173 60.125 29.3173H38.4064V29.3104H27.53C26.9087 29.3104 26.405 29.8141 26.405 30.4354V33.524C26.405 34.1453 26.9087 34.649 27.53 34.649H31.0117C31.633 34.649 32.1367 35.1526 32.1367 35.774V40.9601C30.7572 41.236 29.3984 41.3739 28.0604 41.3739C25.4945 41.3739 23.5357 40.5117 22.1838 38.7874C20.8457 37.0493 20.1766 34.5386 20.1766 31.2555C20.1766 28.1102 21.0112 25.6065 22.6804 23.7442C24.3496 21.8819 26.5705 20.9508 29.3433 20.9508C31.3367 20.9508 33.2676 21.3358 35.1359 22.1058C35.739 22.3543 36.4464 22.0942 36.6966 21.4918L37.9391 18.5001C38.1752 17.9315 37.9114 17.2759 37.3352 17.0592C34.8113 16.1098 32.2044 15.6276 29.5144 15.6126L27.1491 13.5578Z" fill="white"/>
</svg>
