<svg width="250" height="250" viewBox="0 0 250 250" fill="none" xmlns="http://www.w3.org/2000/svg">
<rect width="250" height="250" transform="matrix(1 0 0 -1 0 250)" fill="#9FD6F5"/>
<path d="M113.62 199.659L95.989 194.515C94.1392 193.992 93.0986 192.044 93.6189 190.184L133.073 53.5179C133.593 51.6577 135.53 50.6113 137.38 51.1345L155.011 56.2791C156.861 56.8023 157.901 58.7497 157.381 60.6099L117.927 197.276C117.378 199.136 115.47 200.212 113.62 199.659V199.659ZM80.6699 167.048L93.2431 153.561C94.5727 152.137 94.486 149.87 93.0119 148.562L66.8249 125.397L93.0119 102.232C94.486 100.924 94.6016 98.6567 93.2431 97.2325L80.6699 83.7461C79.3692 82.3509 77.1725 82.2637 75.7562 83.6007L34.1056 122.839C32.6315 124.205 32.6315 126.56 34.1056 127.926L75.7562 167.193C77.1725 168.53 79.3692 168.472 80.6699 167.048V167.048ZM175.244 167.222L216.894 127.955C218.369 126.589 218.369 124.234 216.894 122.868L175.244 83.5717C173.856 82.2637 171.66 82.3218 170.33 83.717L157.757 97.2034C156.427 98.6276 156.514 100.895 157.988 102.203L184.175 125.397L157.988 148.562C156.514 149.87 156.398 152.137 157.757 153.561L170.33 167.048C171.631 168.472 173.827 168.53 175.244 167.222V167.222Z" fill="black"/>
</svg>
