<svg width="250" height="250" viewBox="0 0 250 250" fill="none" xmlns="http://www.w3.org/2000/svg">
<rect width="250" height="250" transform="matrix(1 0 0 -1 0 250)" fill="#9FD6F5"/>
<path d="M56.7188 68.8438C59.0313 83.875 61.3438 87.3438 61.3438 102.375C61.3438 111.625 44 119.719 44 119.719V131.281C44 131.281 61.3438 139.375 61.3438 148.625C61.3438 163.656 59.0313 167.125 56.7188 182.156C53.25 206.438 65.9688 218 77.5313 218H101.813V194.875C101.813 194.875 81 197.188 81 183.313C81 172.906 83.3125 172.906 85.625 149.781C86.7813 139.375 79.8438 131.281 72.9063 125.5C79.8438 119.719 86.7813 112.781 85.625 102.375C82.1563 79.25 81 79.25 81 68.8438C81 54.9687 101.813 56.125 101.813 56.125V33H77.5313C64.8125 33 53.25 44.5625 56.7188 68.8438Z" fill="black"/>
<path d="M193.156 68.8438C190.844 83.875 188.531 87.3438 188.531 102.375C188.531 111.625 205.875 119.719 205.875 119.719V131.281C205.875 131.281 188.531 139.375 188.531 148.625C188.531 163.656 190.844 167.125 193.156 182.156C196.625 206.438 183.906 218 172.344 218H148.063V194.875C148.063 194.875 168.875 197.188 168.875 183.313C168.875 172.906 166.563 172.906 164.25 149.781C163.094 139.375 170.031 131.281 176.969 125.5C170.031 119.719 163.094 112.781 164.25 102.375C166.563 79.25 168.875 79.25 168.875 68.8438C168.875 54.9687 148.063 56.125 148.063 56.125V33H172.344C185.063 33 196.625 44.5625 193.156 68.8438Z" fill="black"/>
</svg>
