<svg width="667" height="593" fill="none" xmlns="http://www.w3.org/2000/svg"><path fill-rule="evenodd" clip-rule="evenodd" d="M352.897.008c64.199.549 129.912 19.205 177.111 62.725 44.643 41.164 46.602 107.34 68.68 163.909 23.954 61.375 78.877 116.556 65.997 181.168-13.169 66.065-73.424 112.676-131.407 146.966-54.182 32.043-117.439 38.284-180.381 37.421-62.119-.851-123.81-9.925-176.822-42.317-56.3-34.401-100.32-84.501-128.42-144.196-31.21-66.308-63.81-142.081-38.747-210.948 24.886-68.381 101.339-99.203 164.665-135.05C229.772 27.872 288.322-.544 352.897.008z" fill="#2C60C7"/><path d="M243.579 211.123l-9.531-2.842c-1-.289-1.562-1.364-1.281-2.392l21.326-75.498a1.871 1.871 0 012.328-1.317l9.531 2.842c1 .289 1.562 1.365 1.281 2.393l-21.326 75.498c-.297 1.027-1.328 1.621-2.328 1.316zm-17.811-18.015l6.796-7.45a1.964 1.964 0 00-.125-2.762l-14.155-12.797 14.155-12.797a1.95 1.95 0 00.125-2.762l-6.796-7.45a1.843 1.843 0 00-2.657-.081l-22.513 21.677a1.95 1.95 0 000 2.81l22.513 21.692c.766.739 1.953.707 2.657-.08zm51.121.096l22.513-21.692a1.95 1.95 0 000-2.81l-22.513-21.709a1.857 1.857 0 00-2.657.081l-6.796 7.45a1.964 1.964 0 00.125 2.762l14.155 12.813-14.155 12.797a1.95 1.95 0 00-.125 2.762l6.796 7.45c.704.787 1.891.819 2.657.096zM212.875 421.375c1.25 8.125 2.5 10 2.5 18.125 0 5-9.375 9.375-9.375 9.375v6.25s9.375 4.375 9.375 9.375c0 8.125-1.25 10-2.5 18.125-1.875 13.125 5 19.375 11.25 19.375h13.125v-12.5S226 490.75 226 483.25c0-5.625 1.25-5.625 2.5-18.125.625-5.625-3.125-10-6.875-13.125 3.75-3.125 7.5-6.875 6.875-12.5-1.875-12.5-2.5-12.5-2.5-18.125 0-7.5 11.25-6.875 11.25-6.875V402h-13.125c-6.875 0-13.125 6.25-11.25 19.375zM286.625 421.375c-1.25 8.125-2.5 10-2.5 18.125 0 5 9.375 9.375 9.375 9.375v6.25s-9.375 4.375-9.375 9.375c0 8.125 1.25 10 2.5 18.125 1.875 13.125-5 19.375-11.25 19.375H262.25v-12.5s11.25 1.25 11.25-6.25c0-5.625-1.25-5.625-2.5-18.125-.625-5.625 3.125-10 6.875-13.125-3.75-3.125-7.5-6.875-6.875-12.5 1.25-12.5 2.5-12.5 2.5-18.125 0-7.5-11.25-6.875-11.25-6.875V402h13.125c6.875 0 13.125 6.25 11.25 19.375zM432.578 449.559l6.348 6.347-7.91 7.91c-.586.586-.586 1.172 0 1.758l1.66 1.66c.586.586 1.172.586 1.758 0l7.91-7.91 12.207 12.207-7.91 7.91c-.586.586-.586 1.14 0 1.661l1.66 1.757c.586.586 1.172.586 1.758 0l7.91-7.91 6.152 6.153c.586.586.879 1.302.879 2.148 0 .846-.293 1.595-.879 2.246l-15.625 15.625c-.651.586-1.4.879-2.246.879-.846 0-1.562-.293-2.148-.879l-31.543-31.543-18.36 18.36c-1.041 1.041-2.311 1.562-3.808 1.562-1.498 0-2.767-.521-3.809-1.562l-7.422-7.52c-1.042-1.042-1.562-2.295-1.562-3.76 0-1.465.52-2.718 1.562-3.76l18.36-18.359-31.641-31.641c-.586-.586-.879-1.302-.879-2.148 0-.846.293-1.562.879-2.148l15.625-15.723c.651-.586 1.4-.879 2.246-.879.846 0 1.562.293 2.148.879l6.153 6.152-7.91 7.91c-.586.586-.586 1.172 0 1.758l1.66 1.66c.586.586 1.172.586 1.758 0l7.91-7.91 12.207 12.207-7.91 7.91c-.586.586-.586 1.172 0 1.758l1.66 1.66c.586.586 1.172.586 1.758 0l7.91-7.91 6.347 6.446 30.957-30.958c1.042-1.041 2.295-1.562 3.76-1.562 1.465 0 2.718.521 3.76 1.562l7.52 7.52c1.041 1.042 1.562 2.295 1.562 3.76 0 1.465-.521 2.718-1.562 3.76l-30.86 30.957zm-61.133 31.347c.131.521.358.944.684 1.27l12.695 12.695c.326.326.749.553 1.27.684-.326.651-.586 1.041-.782 1.172L368.125 502c-1.563 0-2.474-.13-2.734-.391-.261-.26-.391-1.171-.391-2.734l5.273-17.187c.131-.131.521-.391 1.172-.782zM460 120h-90a5.004 5.004 0 00-3.536 1.464A5.004 5.004 0 00365 125v90c0 1.326.527 2.598 1.464 3.536A5.004 5.004 0 00370 220h90a5.004 5.004 0 003.536-1.464A5.004 5.004 0 00465 215v-90a5.004 5.004 0 00-1.464-3.536A5.004 5.004 0 00460 120zm-35.072 90H375v-50h49.928v50zM455 210h-20.072v-50H455v50zm0-60h-80v-20h80v20zM302.944 271.956V262h10.042v9.956h-10.042zm50.07-9.956h9.902v9.956h-9.902V262zm19.944 29.73v-19.774H383v39.686h-10.042v9.817h-10.042v9.956h10.042v9.956H383v9.818h-20.084v-9.818h-9.902v-9.956h-40.028v9.956h-10.042v9.818H283v-9.818h10.042v-9.956h9.902v-9.956h-9.902v-9.817H283v-39.686h10.042v19.774h9.902v-9.818h10.042v-9.956h10.042v9.956h19.944v-9.956h10.042v9.956h9.902v9.818h10.042zm-49.93 9.956v-9.956h-10.042v9.956h10.042zm29.986 0v-9.956h-10.042v9.956h10.042zM543 251h-90a5.004 5.004 0 00-3.536 1.464A5.004 5.004 0 00448 256v90c0 1.326.527 2.598 1.464 3.536A5.004 5.004 0 00453 351h90a5.004 5.004 0 003.536-1.464A5.004 5.004 0 00548 346v-90a5.004 5.004 0 00-1.464-3.536A5.004 5.004 0 00543 251zm-35 90h-50v-35h50v35zm0-45h-50v-35h50v35zm30 45h-20v-80h20v80zM208 251h-80a10.001 10.001 0 00-10 10v60a10.001 10.001 0 0010 10h30v10h-15v10h50v-10h-15v-10h30a10.001 10.001 0 0010-10v-60a10.001 10.001 0 00-10-10zm0 70h-80v-60h80v60zm-16.25-15a8.749 8.749 0 11-17.5 0L158 297.8a8.554 8.554 0 01-8.991.896A8.55 8.55 0 11158 284.25l16.25-8.25a8.849 8.849 0 0116.776-4.058 8.85 8.85 0 01-13.376 10.908l-16.1 8.15 16.1 8.05a8.7 8.7 0 0114.1 6.95z" fill="#fff"/></svg>