<svg width="1920" height="249" viewBox="0 0 1920 249" fill="none" xmlns="http://www.w3.org/2000/svg">
<path fill-rule="evenodd" clip-rule="evenodd" d="M1920 142.109L1840 124.191C1760 106.891 1600 71.0548 1440 59.3153C1280 47.5758 1120 59.3153 960 64.8761C800 71.0547 640 71.0547 480 59.3152C320 47.5758 160 23.479 80 11.7395L0 1.52537e-05L-2.17683e-05 249L80 249C160 249 320 249 480 249C640 249 800 249 960 249C1120 249 1280 249 1440 249C1600 249 1760 249 1840 249L1920 249L1920 142.109Z" fill="#E6E7EA"/>
</svg>
