<svg width="250" height="250" viewBox="0 0 250 250" fill="none" xmlns="http://www.w3.org/2000/svg">
<rect width="250" height="250" fill="#FFDB86"/>
<path d="M158.02 120.983L169.763 132.727L155.129 147.36C154.045 148.444 154.045 149.528 155.129 150.612L158.2 153.684C159.284 154.768 160.368 154.768 161.452 153.684L176.086 139.05L198.669 161.633L184.035 176.267C182.951 177.351 182.951 178.374 184.035 179.338L187.106 182.59C188.19 183.674 189.274 183.674 190.358 182.59L204.992 167.956L216.374 179.338C217.458 180.422 218 181.747 218 183.312C218 184.878 217.458 186.263 216.374 187.468L187.468 216.374C186.263 217.458 184.878 218 183.312 218C181.747 218 180.422 217.458 179.338 216.374L120.983 158.02L87.0186 191.984C85.0915 193.911 82.7428 194.875 79.9727 194.875C77.2025 194.875 74.8538 193.911 72.9268 191.984L59.1963 178.073C57.2692 176.146 56.3057 173.828 56.3057 171.118C56.3057 168.408 57.2692 166.089 59.1963 164.162L93.1611 130.197L34.626 71.6621C33.542 70.5781 33 69.2533 33 67.6875C33 66.1217 33.542 64.7969 34.626 63.7129L63.5322 34.626C64.7367 33.542 66.1217 33 67.6875 33C69.2533 33 70.5781 33.542 71.6621 34.626L83.0439 46.0078L68.4102 60.6416C67.3262 61.7256 67.3262 62.8096 68.4102 63.8936L71.4814 66.9648C72.5654 68.0488 73.6494 68.0488 74.7334 66.9648L89.3672 52.3311L111.95 74.9141L97.3164 89.5479C96.2324 90.6318 96.2324 91.7158 97.3164 92.7998L100.388 95.8711C101.472 96.9551 102.556 96.9551 103.64 95.8711L118.273 81.2373L130.017 93.1611L187.287 35.8906C189.214 33.9635 191.533 33 194.243 33C196.953 33 199.271 33.9635 201.198 35.8906L215.109 49.8018C217.036 51.7288 218 54.0474 218 56.7573C218 59.4673 217.036 61.7858 215.109 63.7129L158.02 120.983ZM44.9238 178.977C45.1647 179.94 45.5863 180.723 46.1885 181.325L69.6748 204.812C70.277 205.414 71.0599 205.835 72.0234 206.076C71.4212 207.281 70.9395 208.003 70.5781 208.244L38.7812 218C35.8906 218 34.2044 217.759 33.7227 217.277C33.2409 216.796 33 215.109 33 212.219L42.7559 180.422C42.9967 180.181 43.7194 179.699 44.9238 178.977Z" fill="black"/>
</svg>
