<svg width="250" height="250" viewBox="0 0 250 250" fill="none" xmlns="http://www.w3.org/2000/svg">
<rect width="250" height="250" fill="#FFDB86"/>
<path d="M208.75 33H42.25C39.7967 33 37.444 33.9746 35.7093 35.7093C33.9746 37.444 33 39.7967 33 42.25V208.75C33 211.203 33.9746 213.556 35.7093 215.291C37.444 217.025 39.7967 218 42.25 218H208.75C211.203 218 213.556 217.025 215.291 215.291C217.025 213.556 218 211.203 218 208.75V42.25C218 39.7967 217.025 37.444 215.291 35.7093C213.556 33.9746 211.203 33 208.75 33ZM143.866 199.5H51.5V107H143.866V199.5ZM199.5 199.5H162.366V107H199.5V199.5ZM199.5 88.5H51.5V51.5H199.5V88.5Z" fill="black"/>
</svg>
