<svg width="28" height="30" viewBox="0 0 28 30" fill="none" xmlns="http://www.w3.org/2000/svg">
<path d="M16.1538 0C13.6038 0 11.5385 2.06538 11.5385 4.61538H4.61538V10.3846C2.06538 10.3846 0 12.45 0 15C0 17.55 2.06538 19.6154 4.61538 19.6154V25.3846H11.5385C11.5385 27.9346 13.6038 30 16.1538 30C18.7038 30 20.7692 27.9346 20.7692 25.3846H27.6923V17.3077H25.3846C24.0115 17.3077 23.0769 16.3731 23.0769 15C23.0769 13.6269 24.0115 12.6923 25.3846 12.6923H27.6923V4.61538H20.7692C20.7692 2.06538 18.7038 0 16.1538 0ZM16.1538 2.30769C17.5269 2.30769 18.4615 3.24231 18.4615 4.61538V6.92308H25.3846V10.3846C22.8346 10.3846 20.7692 12.45 20.7692 15C20.7692 17.55 22.8346 19.6154 25.3846 19.6154V23.0769H18.4615V25.3846C18.4615 26.7577 17.5269 27.6923 16.1538 27.6923C14.7808 27.6923 13.8462 26.7577 13.8462 25.3846V23.0769H6.92308V17.3077H4.61538C3.24231 17.3077 2.30769 16.3731 2.30769 15C2.30769 13.6269 3.24231 12.6923 4.61538 12.6923H6.92308V6.92308H13.8462V4.61538C13.8462 3.24231 14.7808 2.30769 16.1538 2.30769Z" fill="#142C5B"/>
</svg>
