<svg width="38" height="30" viewBox="0 0 38 30" fill="none" xmlns="http://www.w3.org/2000/svg">
<path d="M18.75 15L4.7625 9.4125L5.625 30H1.875L2.775 8.60625L0 7.5L18.75 0L37.5 7.5L18.75 15ZM18.75 5.625C17.7188 5.625 16.875 6.0375 16.875 6.5625C16.875 7.0875 17.7188 7.5 18.75 7.5C19.7812 7.5 20.625 7.0875 20.625 6.5625C20.625 6.0375 19.7812 5.625 18.75 5.625ZM18.75 16.875L29.1937 12.6938C30.525 14.4563 31.4438 16.575 31.7438 18.8812C31.1812 18.8062 30.6 18.75 30 18.75C25.2188 18.75 21.0375 21.3188 18.75 25.1437C17.5889 23.1952 15.9417 21.5815 13.9696 20.4607C11.9976 19.3399 9.76829 18.7504 7.5 18.75C6.9 18.75 6.31875 18.8062 5.75625 18.8812C6.05625 16.575 6.975 14.4563 8.30625 12.6938L18.75 16.875Z" fill="#142C5B"/>
</svg>
