<svg width="29" height="30" viewBox="0 0 29 30" fill="none" xmlns="http://www.w3.org/2000/svg">
<path fill-rule="evenodd" clip-rule="evenodd" d="M2.82151 3.29177C2.82151 3.16705 2.87106 3.04744 2.95925 2.95925C3.04744 2.87106 3.16705 2.82151 3.29177 2.82151H19.2803C19.4051 2.82151 19.5247 2.87106 19.6129 2.95925C19.7011 3.04744 19.7506 3.16705 19.7506 3.29177V17.8433C19.7506 18.2174 19.8992 18.5762 20.1638 18.8408C20.4284 19.1054 20.7872 19.254 21.1614 19.254C21.5355 19.254 21.8943 19.1054 22.1589 18.8408C22.4235 18.5762 22.5721 18.2174 22.5721 17.8433V3.29177C22.5721 2.41874 22.2253 1.58146 21.608 0.964136C20.9907 0.34681 20.1534 0 19.2803 0H3.29177C2.41874 0 1.58146 0.34681 0.964136 0.964136C0.34681 1.58146 0 2.41874 0 3.29177V24.9234C0 26.7404 1.47471 28.2151 3.29177 28.2151H9.25457C9.62872 28.2151 9.98755 28.0665 10.2521 27.8019C10.5167 27.5374 10.6653 27.1785 10.6653 26.8044C10.6653 26.4302 10.5167 26.0714 10.2521 25.8068C9.98755 25.5423 9.62872 25.3936 9.25457 25.3936H3.29177C3.16705 25.3936 3.04744 25.3441 2.95925 25.2559C2.87106 25.1677 2.82151 25.0481 2.82151 24.9234V3.29177ZM7.05378 7.52404C6.67963 7.52404 6.3208 7.67267 6.05623 7.93724C5.79166 8.20181 5.64303 8.56064 5.64303 8.93479C5.64303 9.30895 5.79166 9.66778 6.05623 9.93235C6.3208 10.1969 6.67963 10.3456 7.05378 10.3456H15.5183C15.8925 10.3455 16.2513 10.1969 16.5159 9.93235C16.7804 9.66778 16.9291 9.30895 16.9291 8.93479C16.9291 8.56064 16.7804 8.20181 16.5159 7.93724C16.2513 7.67267 15.8925 7.52404 15.5183 7.52404H7.05378ZM5.64303 14.5778C5.64303 14.2037 5.79166 13.8448 6.05623 13.5803C6.3208 13.3157 6.67963 13.1671 7.05378 13.1671H10.8158C11.19 13.1671 11.5488 13.3157 11.8134 13.5803C12.0779 13.8448 12.2266 14.2037 12.2266 14.5778C12.2266 14.952 12.0779 15.3108 11.8134 15.5754C11.5488 15.8399 11.19 15.9886 10.8158 15.9886H7.05378C6.67963 15.9886 6.3208 15.8399 6.05623 15.5754C5.79166 15.3108 5.64303 14.952 5.64303 14.5778ZM27.79 21.2309C27.9227 21.1015 28.0285 20.9472 28.1016 20.7769C28.1746 20.6065 28.2133 20.4235 28.2156 20.2381C28.2179 20.0528 28.1836 19.8689 28.1148 19.6968C28.046 19.5247 27.9439 19.3678 27.8145 19.2352C27.685 19.1026 27.5307 18.9967 27.3604 18.9237C27.1901 18.8507 27.007 18.8119 26.8217 18.8096C26.6364 18.8074 26.4524 18.8416 26.2803 18.9104C26.1082 18.9793 25.9514 19.0813 25.8187 19.2107L18.2458 26.6069L15.5766 23.9264C15.3097 23.6767 14.9562 23.5404 14.5907 23.5461C14.2252 23.5519 13.8762 23.6993 13.6172 23.9573C13.3583 24.2153 13.2095 24.5637 13.2024 24.9292C13.1953 25.2947 13.3303 25.6486 13.579 25.9165L17.2338 29.5845C17.4959 29.8479 17.8514 29.9971 18.2229 30C18.5945 30.0028 18.9522 29.8589 19.2183 29.5996L27.79 21.2291V21.2309Z" fill="#142C5B"/>
</svg>
